<svg xmlns="http://www.w3.org/2000/svg" width="2000" height="2000" viewBox="0 0 1500 1500"><defs><clipPath id="f2eb2964ff"><path d="M37 1h32v72.918H37Zm0 0"/></clipPath><clipPath id="7ba2c22488"><path d="M0 0h106v75H0z"/></clipPath><clipPath id="d50e0a2ea5"><path d="M.055 11H32v53H.055Zm0 0"/></clipPath><clipPath id="0a0abac9a3"><path d="M37 .258h32v73.5H37Zm0 0"/></clipPath><clipPath id="b3c97b955d"><path d="M0 0h106v74H0z"/></clipPath><clipPath id="2da0a1b634"><path d="M37 .234h32v73.5H37Zm0 0"/></clipPath><clipPath id="2bc3b8acd2"><path d="M0 0h106v74H0z"/></clipPath><clipPath id="74d088ac5d"><path d="M37 1h32v73.215H37Zm0 0"/></clipPath><clipPath id="8978446bcb"><path d="M0 0h106v75H0z"/></clipPath><clipPath id="f63ec5e2ba"><path d="M1.027 11H33v53H1.027Zm0 0"/></clipPath><clipPath id="3174012734"><path d="M38 .234h32v73.5H38Zm0 0"/></clipPath><clipPath id="00a7ff41bc"><path d="M0 0h107v74H0z"/></clipPath><clipPath id="e2b4d69e24"><path d="M74 12h31.805v52H74Zm0 0"/></clipPath><clipPath id="08e967eee6"><path d="M37 1h33v73.215H37Zm0 0"/></clipPath><clipPath id="cdb3d48c60"><path d="M0 0h106v75H0z"/></clipPath><clipPath id="dd1dbc4fde"><path d="M1.027 11H33v53H1.027Zm0 0"/></clipPath><clipPath id="495a308926"><path d="M38 .195h32v73.5H38Zm0 0"/></clipPath><clipPath id="ac9f1004fb"><path d="M0 0h107v74H0z"/></clipPath><clipPath id="7d1f1b295e"><path d="M37 1h32v73.215H37Zm0 0"/></clipPath><clipPath id="a7aab63b4b"><path d="M0 0h106v75H0z"/></clipPath><clipPath id="6430e20cf4"><path d="M37 .195h32v73.5H37Zm0 0"/></clipPath><clipPath id="40803c6c79"><path d="M0 0h106v74H0z"/></clipPath><clipPath id="aab32ad8d5"><path d="M37 1h32v73.434H37Zm0 0"/></clipPath><clipPath id="8.664175e+66"><path d="M0 0h106v75H0z"/></clipPath><clipPath id="bcba001ed9"><path d="M37 .156h32v73.5H37Zm0 0"/></clipPath><clipPath id="32d03db546"><path d="M0 0h106v74H0z"/></clipPath><clipPath id="13ed278cf0"><path d="M37 1h32v73.047H37Zm0 0"/></clipPath><clipPath id="3e3b3db919"><path d="M0 0h106v75H0z"/></clipPath><clipPath id="93ffa91253"><path d="M37 .027h32v73.5H37Zm0 0"/></clipPath><clipPath id="6aa7a5b603"><path d="M0 0h106v74H0z"/></clipPath><clipPath id="30449e500c"><path d="M74 11h31.805v53H74Zm0 0"/></clipPath><clipPath id="b9fad1f905"><path d="M37 .258h33v73.5H37Zm0 0"/></clipPath><clipPath id="1b3c2b29c7"><path d="M0 0h106v74H0z"/></clipPath><clipPath id="f4849c0784"><path d="M6.219 6.547h1125v1107h-1125Zm0 0"/></clipPath><clipPath id="d55819ed45"><path d="M0 0h1135v1118H0z"/></clipPath><clipPath id="aca37f209c"><path d="M.055 12H32v53H.055Zm0 0"/></clipPath><clipPath id="fc090e84a4"><path d="M37 1h32v73.434H37Zm0 0"/></clipPath><clipPath id="73d02e9195"><path d="M0 0h106v75H0z"/></clipPath><clipPath id="322c78c46d"><path d="M73 12h32.777v52H73Zm0 0"/></clipPath><clipPath id="28fbd55953"><path d="M37 1h33v73.242H37Zm0 0"/></clipPath><clipPath id="ca0d0a4dae"><path d="M0 0h106v75H0z"/></clipPath><clipPath id="4f8c1254f3"><path d="M.055 11H32v53H.055Zm0 0"/></clipPath><clipPath id="8f7c170b65"><path d="M37 1h32v72.898H37Zm0 0"/></clipPath><clipPath id="5f3387991c"><path d="M0 0h106v75H0z"/></clipPath><clipPath id="ded7ca1697">
<path d="M37 1h32v73.242H37Zm0 0"/></clipPath><clipPath id="0"><path d="M0 0h106v75H0z"/></clipPath><clipPath id="a28e570269"><path d="M.055 11H32v53H.055Zm0 0"/></clipPath><clipPath id="d20acf340c"><path d="M37 1h32v72.918H37Zm0 0"/></clipPath><clipPath id="5b18026d4b"><path d="M0 0h106v74H0z"/></clipPath><mask id="464d0235ea"><g filter="url(#6889f8dbd4)"><path fill-opacity=".44" d="M-150-150h1800v1800H-150z"/></g></mask><mask id="c809d65d8e"><g filter="url(#6889f8dbd4)"><path fill-opacity=".44" d="M-150-150h1800v1800H-150z"/></g></mask><mask id="b00e41bc3d"><g filter="url(#6889f8dbd4)"><path fill-opacity=".44" d="M-150-150h1800v1800H-150z"/></g></mask><mask id="e2dcd7f10a"><g filter="url(#6889f8dbd4)"><path fill-opacity=".44" d="M-150-150h1800v1800H-150z"/></g></mask><mask id="20adc336ac"><g filter="url(#6889f8dbd4)"><path fill-opacity=".44" d="M-150-150h1800v1800H-150z"/></g></mask><mask id="caa877a005"><g filter="url(#6889f8dbd4)"><path fill-opacity=".44" d="M-150-150h1800v1800H-150z"/></g></mask><mask id="d87e559668"><g filter="url(#6889f8dbd4)"><path fill-opacity=".44" d="M-150-150h1800v1800H-150z"/></g></mask><mask id="1369b6ffe7"><g filter="url(#6889f8dbd4)"><path fill-opacity=".44" d="M-150-150h1800v1800H-150z"/></g></mask><mask id="de0e4bb0f7"><g filter="url(#6889f8dbd4)"><path fill-opacity=".44" d="M-150-150h1800v1800H-150z"/></g></mask><mask id="4b722274f5"><g filter="url(#6889f8dbd4)"><path fill-opacity=".44" d="M-150-150h1800v1800H-150z"/></g></mask><mask id="df640a8ce3"><g filter="url(#6889f8dbd4)"><path fill-opacity=".44" d="M-150-150h1800v1800H-150z"/></g></mask><mask id="c70100f74a"><g filter="url(#6889f8dbd4)"><path fill-opacity=".44" d="M-150-150h1800v1800H-150z"/></g></mask><mask id="5a32b2d47b"><g filter="url(#6889f8dbd4)"><path fill-opacity=".44" d="M-150-150h1800v1800H-150z"/></g></mask><mask id="a8a6be61f7"><g filter="url(#6889f8dbd4)"><path fill-opacity=".44" d="M-150-150h1800v1800H-150z"/></g></mask><mask id="f4b724d664"><g filter="url(#6889f8dbd4)"><path fill-opacity=".38" d="M-150-150h1800v1800H-150z"/></g></mask><mask id="c0eb7908c9"><g filter="url(#6889f8dbd4)"><path fill-opacity=".44" d="M-150-150h1800v1800H-150z"/></g></mask><mask id="0fb3497dbb"><g filter="url(#6889f8dbd4)"><path fill-opacity=".44" d="M-150-150h1800v1800H-150z"/></g></mask><mask id="1bf778a091"><g filter="url(#6889f8dbd4)"><path fill-opacity=".46" d="M-150-150h1800v1800H-150z"/></g></mask><mask id="031bc4f10a"><g filter="url(#6889f8dbd4)"><path fill-opacity=".44" d="M-150-150h1800v1800H-150z"/></g></mask><mask id="c6a0144e80"><g filter="url(#6889f8dbd4)"><path fill-opacity=".44" d="M-150-150h1800v1800H-150z"/></g></mask><linearGradient id="b6a44cbb6c" x1="0" x2="2000" y1="1000" y2="1000" gradientTransform="scale(.75)" gradientUnits="userSpaceOnUse"><stop offset="0" stop-color="#5de0e6"/><stop offset=".004" stop-color="#5ddfe6"/><stop offset=".008" stop-color="#5cdfe6"/><stop offset=".012" stop-color="#5cdee5"/><stop offset=".016" stop-color="#5cdee5"/><stop offset=".02" stop-color="#5bdde5"/><stop offset=".023" stop-color="#5bdce5"/><stop offset=".027" stop-color="#5adce4"/><stop offset=".031" stop-color="#5adbe4"/>
<stop offset=".035" stop-color="#5adbe4"/><stop offset=".039" stop-color="#59dae4"/><stop offset=".043" stop-color="#59dae4"/><stop offset=".047" stop-color="#59d9e3"/><stop offset=".051" stop-color="#58d8e3"/><stop offset=".055" stop-color="#58d8e3"/><stop offset=".059" stop-color="#58d7e3"/><stop offset=".063" stop-color="#57d7e2"/><stop offset=".066" stop-color="#57d6e2"/><stop offset=".07" stop-color="#56d5e2"/><stop offset=".074" stop-color="#56d5e2"/><stop offset=".078" stop-color="#56d4e2"/><stop offset=".082" stop-color="#55d4e1"/><stop offset=".086" stop-color="#55d3e1"/><stop offset=".09" stop-color="#55d3e1"/><stop offset=".094" stop-color="#54d2e1"/><stop offset=".098" stop-color="#54d1e0"/><stop offset=".102" stop-color="#54d1e0"/><stop offset=".105" stop-color="#53d0e0"/><stop offset=".109" stop-color="#53d0e0"/><stop offset=".113" stop-color="#52cfe0"/><stop offset=".117" stop-color="#52cedf"/><stop offset=".121" stop-color="#52cedf"/><stop offset=".125" stop-color="#51cddf"/><stop offset=".129" stop-color="#51cddf"/><stop offset=".133" stop-color="#51ccde"/><stop offset=".137" stop-color="#50cbde"/><stop offset=".141" stop-color="#50cbde"/><stop offset=".145" stop-color="#50cade"/><stop offset=".148" stop-color="#4fcade"/><stop offset=".152" stop-color="#4fc9dd"/><stop offset=".156" stop-color="#4ec9dd"/><stop offset=".16" stop-color="#4ec8dd"/><stop offset=".164" stop-color="#4ec7dd"/><stop offset=".168" stop-color="#4dc7dc"/><stop offset=".172" stop-color="#4dc6dc"/><stop offset=".176" stop-color="#4dc6dc"/><stop offset=".18" stop-color="#4cc5dc"/><stop offset=".184" stop-color="#4cc4dc"/><stop offset=".188" stop-color="#4cc4db"/><stop offset=".191" stop-color="#4bc3db"/><stop offset=".195" stop-color="#4bc3db"/><stop offset=".199" stop-color="#4ac2db"/><stop offset=".203" stop-color="#4ac2da"/><stop offset=".207" stop-color="#4ac1da"/><stop offset=".211" stop-color="#49c0da"/><stop offset=".215" stop-color="#49c0da"/><stop offset=".219" stop-color="#49bfda"/><stop offset=".223" stop-color="#48bfd9"/><stop offset=".227" stop-color="#48bed9"/><stop offset=".23" stop-color="#48bdd9"/><stop offset=".234" stop-color="#47bdd9"/><stop offset=".238" stop-color="#47bcd8"/><stop offset=".242" stop-color="#46bcd8"/><stop offset=".246" stop-color="#46bbd8"/><stop offset=".25" stop-color="#46bad8"/><stop offset=".254" stop-color="#45bad8"/><stop offset=".258" stop-color="#45b9d7"/><stop offset=".262" stop-color="#45b9d7"/><stop offset=".266" stop-color="#44b8d7"/><stop offset=".27" stop-color="#44b8d7"/><stop offset=".273" stop-color="#44b7d6"/><stop offset=".277" stop-color="#43b6d6"/><stop offset=".281" stop-color="#43b6d6"/><stop offset=".285" stop-color="#42b5d6"/><stop offset=".289" stop-color="#42b5d6"/><stop offset=".293" stop-color="#42b4d5"/><stop offset=".297" stop-color="#41b3d5"/><stop offset=".301" stop-color="#41b3d5"/><stop offset=".305" stop-color="#41b2d5"/><stop offset=".309" stop-color="#40b2d4"/><stop offset=".313" stop-color="#40b1d4"/><stop offset=".316" stop-color="#40b1d4"/><stop offset=".32" stop-color="#3fb0d4"/><stop offset=".324" stop-color="#3fafd4"/><stop offset=".328" stop-color="#3eafd3"/><stop offset=".332" stop-color="#3eaed3"/><stop offset=".336" stop-color="#3eaed3"/><stop offset=".34" stop-color="#3dadd3"/><stop offset=".344" stop-color="#3dacd2"/><stop offset=".348" stop-color="#3dacd2"/><stop offset=".352" stop-color="#3cabd2"/><stop offset=".355" stop-color="#3cabd2"/><stop offset=".359" stop-color="#3caad2"/><stop offset=".363" stop-color="#3ba9d1"/><stop offset=".367" stop-color="#3ba9d1"/><stop offset=".371" stop-color="#3aa8d1"/><stop offset=".375" stop-color="#3aa8d1"/><stop offset=".379" stop-color="#3aa7d0"/><stop offset=".383" stop-color="#39a7d0"/><stop offset=".387" stop-color="#39a6d0"/><stop offset=".391" stop-color="#39a5d0"/><stop offset=".395" stop-color="#38a5d0"/><stop offset=".398" stop-color="#38a4cf"/><stop offset=".402" stop-color="#38a4cf"/><stop offset=".406" stop-color="#37a3cf"/><stop offset=".41" stop-color="#37a2cf"/><stop offset=".414" stop-color="#36a2ce"/><stop offset=".418" stop-color="#36a1ce"/><stop offset=".422" stop-color="#36a1ce"/><stop offset=".426" stop-color="#35a0ce"/><stop offset=".43" stop-color="#35a0ce"/><stop offset=".434" stop-color="#359fcd"/><stop offset=".438" stop-color="#349ecd"/><stop offset=".441" stop-color="#349ecd"/><stop offset=".445" stop-color="#349dcd"/><stop offset=".449" stop-color="#339dcc"/><stop offset=".453" stop-color="#339ccc"/><stop offset=".457" stop-color="#329bcc"/><stop offset=".461" stop-color="#329bcc"/><stop offset=".465" stop-color="#329acc"/><stop offset=".469" stop-color="#319acb"/><stop offset=".473" stop-color="#3199cb"/><stop offset=".477" stop-color="#3199cb"/><stop offset=".48" stop-color="#3098cb"/><stop offset=".484" stop-color="#3097ca"/><stop offset=".488" stop-color="#3097ca"/><stop offset=".492" stop-color="#2f96ca"/><stop offset=".496" stop-color="#2f96ca"/><stop offset=".5" stop-color="#2e95c9"/><stop offset=".504" stop-color="#2e94c9"/><stop offset=".508" stop-color="#2e94c9"/><stop offset=".512" stop-color="#2d93c9"/><stop offset=".516" stop-color="#2d93c9"/><stop offset=".52" stop-color="#2d92c8"/><stop offset=".523" stop-color="#2c91c8"/><stop offset=".527" stop-color="#2c91c8"/><stop offset=".531" stop-color="#2c90c8"/><stop offset=".535" stop-color="#2b90c7"/><stop offset=".539" stop-color="#2b8fc7"/><stop offset=".543" stop-color="#2b8fc7"/><stop offset=".547" stop-color="#2a8ec7"/><stop offset=".551" stop-color="#2a8dc7"/><stop offset=".555" stop-color="#298dc6"/><stop offset=".559" stop-color="#298cc6"/><stop offset=".563" stop-color="#298cc6"/><stop offset=".566" stop-color="#288bc6"/><stop offset=".57" stop-color="#288ac5"/><stop offset=".574" stop-color="#288ac5"/><stop offset=".578" stop-color="#2789c5"/><stop offset=".582" stop-color="#2789c5"/><stop offset=".586" stop-color="#2788c5"/><stop offset=".59" stop-color="#2688c4"/><stop offset=".594" stop-color="#2687c4"/><stop offset=".598" stop-color="#2586c4"/><stop offset=".602" stop-color="#2586c4"/><stop offset=".605" stop-color="#2585c3"/><stop offset=".609" stop-color="#2485c3"/><stop offset=".613" stop-color="#2484c3"/><stop offset=".617" stop-color="#2483c3"/><stop offset=".621" stop-color="#2383c3"/><stop offset=".625" stop-color="#2382c2"/><stop offset=".629" stop-color="#2382c2"/><stop offset=".633" stop-color="#2281c2"/><stop offset=".637" stop-color="#2280c2"/><stop offset=".641" stop-color="#2180c1"/><stop offset=".645" stop-color="#217fc1"/><stop offset=".648" stop-color="#217fc1"/><stop offset=".652" stop-color="#207ec1"/><stop offset=".656" stop-color="#207ec1"/><stop offset=".66" stop-color="#207dc0"/><stop offset=".664" stop-color="#1f7cc0"/><stop offset=".668" stop-color="#1f7cc0"/><stop offset=".672" stop-color="#1f7bc0"/><stop offset=".676" stop-color="#1e7bbf"/><stop offset=".68" stop-color="#1e7abf"/><stop offset=".684" stop-color="#1d79bf"/><stop offset=".688" stop-color="#1d79bf"/><stop offset=".691" stop-color="#1d78bf"/><stop offset=".695" stop-color="#1c78be"/><stop offset=".699" stop-color="#1c77be"/><stop offset=".703" stop-color="#1c77be"/><stop offset=".707" stop-color="#1b76be"/><stop offset=".711" stop-color="#1b75bd"/><stop offset=".715" stop-color="#1b75bd"/><stop offset=".719" stop-color="#1a74bd"/><stop offset=".723" stop-color="#1a74bd"/><stop offset=".727" stop-color="#1973bd"/><stop offset=".73" stop-color="#1972bc"/><stop offset=".734" stop-color="#1972bc"/><stop offset=".738" stop-color="#1871bc"/><stop offset=".742" stop-color="#1871bc"/><stop offset=".746" stop-color="#1870bb"/><stop offset=".75" stop-color="#176fbb"/><stop offset=".754" stop-color="#176fbb"/><stop offset=".758" stop-color="#176ebb"/><stop offset=".762" stop-color="#166ebb"/><stop offset=".766" stop-color="#166dba"/><stop offset=".77" stop-color="#156dba"/><stop offset=".773" stop-color="#156cba"/><stop offset=".777" stop-color="#156bba"/><stop offset=".781" stop-color="#146bb9"/><stop offset=".785" stop-color="#146ab9"/><stop offset=".789" stop-color="#146ab9"/><stop offset=".793" stop-color="#1369b9"/><stop offset=".797" stop-color="#1368b9"/><stop offset=".801" stop-color="#1368b8"/><stop offset=".805" stop-color="#1267b8"/><stop offset=".809" stop-color="#1267b8"/><stop offset=".813" stop-color="#1166b8"/><stop offset=".816" stop-color="#1166b7"/><stop offset=".82" stop-color="#1165b7"/><stop offset=".824" stop-color="#1064b7"/><stop offset=".828" stop-color="#1064b7"/><stop offset=".832" stop-color="#1063b7"/><stop offset=".836" stop-color="#0f63b6"/><stop offset=".84" stop-color="#0f62b6"/><stop offset=".844" stop-color="#0f61b6"/><stop offset=".848" stop-color="#0e61b6"/><stop offset=".852" stop-color="#0e60b5"/><stop offset=".855" stop-color="#0d60b5"/><stop offset=".859" stop-color="#0d5fb5"/><stop offset=".863" stop-color="#0d5fb5"/><stop offset=".867" stop-color="#0c5eb5"/><stop offset=".871" stop-color="#0c5db4"/><stop offset=".875" stop-color="#0c5db4"/><stop offset=".879" stop-color="#0b5cb4"/><stop offset=".883" stop-color="#0b5cb4"/><stop offset=".887" stop-color="#0b5bb3"/><stop offset=".891" stop-color="#0a5ab3"/><stop offset=".895" stop-color="#0a5ab3"/><stop offset=".898" stop-color="#0959b3"/><stop offset=".902" stop-color="#0959b3"/><stop offset=".906" stop-color="#0958b2"/><stop offset=".91" stop-color="#0857b2"/><stop offset=".914" stop-color="#0857b2"/><stop offset=".918" stop-color="#0856b2"/><stop offset=".922" stop-color="#0756b1"/><stop offset=".926" stop-color="#0755b1"/><stop offset=".93" stop-color="#0755b1"/><stop offset=".934" stop-color="#0654b1"/><stop offset=".938" stop-color="#0653b1"/>
<stop offset=".941" stop-color="#0553b0"/><stop offset=".945" stop-color="#0552b0"/><stop offset=".949" stop-color="#0552b0"/><stop offset=".953" stop-color="#0451b0"/><stop offset=".957" stop-color="#0450af"/><stop offset=".961" stop-color="#0450af"/><stop offset=".965" stop-color="#034faf"/><stop offset=".969" stop-color="#034faf"/><stop offset=".973" stop-color="#034eaf"/><stop offset=".977" stop-color="#024eae"/><stop offset=".98" stop-color="#024dae"/><stop offset=".984" stop-color="#014cae"/><stop offset=".988" stop-color="#014cae"/><stop offset=".992" stop-color="#014bad"/><stop offset=".996" stop-color="#004bad"/><stop offset="1" stop-color="#004aad"/></linearGradient><filter id="6889f8dbd4" width="100%" height="100%" x="0%" y="0%"><feColorMatrix color-interpolation-filters="sRGB" values="0 0 0 0 1 0 0 0 0 1 0 0 0 0 1 0 0 0 1 0"/></filter></defs>
<rect
  x="0"
  y="0"
  width="1500"
  height="1500"
  rx="240"
  ry="240"
  fill="url(#b6a44cbb6c)"
/>
<path fill="#34ddaf" fill-opacity=".302" d="M466.334 767q0-51.592 2.296-102.047 1.137-50.45 10.313-97.453 8.026-45.874 27.516-86 19.499-40.138 55.046-71.094 35.545-29.81 90.579-49.297 53.887-19.499 133-22.937 6.888 0 13.765-1.141h12.61q68.794 0 116.953 17.187 47.014 18.346 79.125 49.313 32.092 30.956 51.593 71.094 18.342 41.267 28.657 87.14 9.185 45.861 11.468 92.875 2.296 48.158 3.438 92.875l-227.016 30.953q0-29.812-2.297-57.328-3.44-27.514-11.468-49.312-8.033-21.781-22.938-34.39t-40.125-12.61h-10.328q-32.095 3.438-49.297 13.75-17.204 11.471-24.078 33.25-8.034 21.798-9.172 56.187-1.141 35.55-1.14 88.297c0 35.156.378 65.352 1.14 90.578.758 25.993 3.817 47.391 9.172 64.203q8.028 25.238 25.219 36.704 16.06 12.609 48.156 12.609c21.406 0 38.223-3.82 50.453-11.469q17.202-10.312 25.235-32.11 8.014-21.777 10.312-56.171 1.155-33.263 1.156-79.125l227.016-27.516q-1.143 73.378-10.313 138.735c-6.117 44.336-19.875 82.937-41.28 115.812q-32.111 49.3-94.016 77.969-63.066 28.67-170.844 28.672-107.785 0-170.844-34.406-64.218-34.389-96.328-91.735-33.252-56.17-42.422-130.703Q466.334 844.97 466.334 767m0 0"/><path fill="#34ddaf" fill-opacity=".502" d="M451.65 755.528q0-51.591 2.298-102.046 1.137-50.45 10.312-97.454 8.028-45.874 27.516-86 19.5-40.137 55.047-71.093 35.544-29.81 90.578-49.297 53.888-19.5 133-22.938c4.594 0 9.18-.379 13.766-1.14h12.609q68.795 0 116.953 17.187 47.016 18.345 79.125 49.313 32.093 30.956 51.594 71.093c12.226 27.512 21.781 56.559 28.656 87.141 6.125 30.574 9.945 61.531 11.469 92.875q2.296 48.158 3.437 92.875l-227.015 30.953q0-29.812-2.297-57.328-3.44-27.516-11.469-49.312-8.032-21.781-22.937-34.391-14.907-12.61-40.125-12.61h-10.329q-32.095 3.44-49.296 13.75-17.206 11.472-24.079 33.25-8.034 21.799-9.171 56.188-1.142 35.55-1.141 88.297c0 35.156.379 65.352 1.14 90.578.758 25.992 3.817 47.39 9.172 64.203q8.027 25.236 25.22 36.703 16.059 12.61 48.155 12.61c21.407 0 38.223-3.82 50.454-11.47q17.201-10.311 25.234-32.108 8.016-21.78 10.312-56.172 1.156-33.264 1.157-79.125l227.015-27.516q-1.142 73.378-10.312 138.734-9.174 66.502-41.281 115.813-32.111 49.3-94.016 77.969-63.065 28.67-170.844 28.672-107.784 0-170.844-34.407-64.218-34.388-96.328-91.734c-22.168-37.445-36.308-81.016-42.422-130.703q-10.312-73.39-10.312-151.36m0 0"/><path fill="#fff" d="M436.968 744.057q0-51.591 2.297-102.047 1.137-50.45 10.313-97.453 8.027-45.874 27.515-86 19.5-40.138 55.047-71.094c23.696-19.875 53.89-36.304 90.578-49.296q53.888-19.5 133-22.938c4.594 0 9.18-.379 13.766-1.14h12.61q68.794 0 116.952 17.187 47.017 18.346 79.125 49.312 32.093 30.956 51.594 71.094 18.342 41.268 28.656 87.14 9.186 45.861 11.47 92.876 2.294 48.157 3.437 92.875l-227.016 30.953q0-29.812-2.297-57.328-3.44-27.515-11.469-49.313-8.032-21.78-22.937-34.39-14.907-12.61-40.125-12.61h-10.328c-21.399 2.293-37.828 6.875-49.297 13.75q-17.204 11.472-24.078 33.25-8.034 21.798-9.172 56.188-1.141 35.55-1.14 88.297-.001 52.736 1.14 90.578c.758 25.992 3.816 47.39 9.172 64.203q8.027 25.236 25.219 36.703 16.059 12.61 48.156 12.61c21.406 0 38.222-3.82 50.453-11.47q17.203-10.311 25.234-32.109 8.016-21.778 10.313-56.172 1.155-33.262 1.156-79.125l227.016-27.515q-1.143 73.378-10.313 138.734-9.174 66.502-41.281 115.813-32.11 49.3-94.016 77.968-63.065 28.671-170.843 28.672-107.785 0-170.844-34.406-64.22-34.389-96.328-91.734-33.252-56.17-42.422-130.703-10.313-73.39-10.313-151.36m0 0"/><g mask="url(#464d0235ea)"><g clip-path="url(#7ba2c22488)" transform="translate(949 883)"><path d="M27.246 63.566c-1.55 0-2.586-.52-3.621-1.554L2.922 41.309c-2.07-2.07-2.07-5.176 0-7.246l20.703-20.704c2.07-2.07 5.176-2.07 7.246 0s2.07 5.176 0 7.246L13.79 37.688l17.082 17.078c2.07 2.07 2.07 5.175 0 7.246-1.035 1.035-2.07 1.554-3.625 1.554m51.761 0c-1.555 0-2.59-.52-3.625-1.554-2.07-2.07-2.07-5.176 0-7.246l17.082-17.078-17.082-17.083c-2.07-2.07-2.07-5.175 0-7.246 2.07-2.07 5.176-2.07 7.246 0l20.703 20.704c2.07 2.07 2.07 5.175 0 7.246L82.629 62.012c-1.035 1.035-2.07 1.554-3.621 1.554m0 0"/><g clip-path="url(#f2eb2964ff)"><path d="M42.773 73.918c-.515 0-1.035 0-1.55-.516-2.59-1.035-4.141-3.625-3.106-6.73L58.82 4.559c1.035-2.586 3.621-4.141 6.727-3.106 2.59 1.035 4.14 3.625 3.105 6.73L47.95 70.298c-1.035 2.07-3.105 3.621-5.176 3.621m0 0"/></g></g></g><g mask="url(#c809d65d8e)"><g clip-path="url(#b3c97b955d)" transform="translate(864 974)"><g clip-path="url(#d50e0a2ea5)"><path d="M26.676 63.406c-1.555 0-2.59-.515-3.625-1.55L2.348 41.147c-2.07-2.07-2.07-5.175 0-7.246L23.05 13.2c2.07-2.07 5.176-2.07 7.246 0s2.07 5.176 0 7.246L13.215 37.527 30.297 54.61c2.07 2.07 2.07 5.176 0 7.246-1.035 1.036-2.07 1.551-3.621 1.551m0 0"/></g><path d="M78.434 63.406c-1.551 0-2.586-.515-3.621-1.55-2.07-2.07-2.07-5.176 0-7.247l17.082-17.082-17.082-17.082c-2.07-2.07-2.07-5.175 0-7.246 2.07-2.07 5.175-2.07 7.246 0l20.703 20.703c2.07 2.07 2.07 5.176 0 7.246L82.059 61.855c-1.036 1.036-2.07 1.551-3.625 1.551m0 0"/><g clip-path="url(#0a0abac9a3)"><path d="M42.203 73.758c-.52 0-1.035 0-1.555-.516-2.586-1.035-4.14-3.625-3.105-6.73L58.25 4.398c1.035-2.585 3.621-4.14 6.727-3.105 2.59 1.035 4.14 3.625 3.105 6.73L47.379 70.137c-1.035 2.07-3.106 3.62-5.176 3.62m0 0"/></g></g></g><g mask="url(#b00e41bc3d)"><g clip-path="url(#2bc3b8acd2)" transform="translate(778 336)"><path d="M27.215 63.383c-1.55 0-2.59-.52-3.625-1.555L2.887 41.125c-2.07-2.07-2.07-5.176 0-7.246L23.59 13.172c2.074-2.07 5.18-2.07 7.25 0s2.07 5.176 0 7.246L13.758 37.5 30.84 54.582c2.07 2.07 2.07 5.176 0 7.246-1.035 1.035-2.07 1.555-3.625 1.555m51.762 0c-1.555 0-2.59-.52-3.625-1.555-2.07-2.07-2.07-5.176 0-7.246L92.434 37.5 75.352 20.418c-2.07-2.07-2.07-5.176 0-7.246s5.175-2.07 7.25 0l20.703 20.707c2.07 2.07 2.07 5.176 0 7.246L82.602 61.828c-1.04 1.035-2.075 1.555-3.625 1.555m0 0"/><g clip-path="url(#2da0a1b634)"><path d="M42.742 73.734c-.515 0-1.035 0-1.55-.52-2.59-1.034-4.141-3.62-3.106-6.726L58.789 4.375c1.035-2.59 3.625-4.14 6.73-3.105 2.586 1.035 4.141 3.62 3.106 6.726L47.918 70.11c-1.035 2.07-3.105 3.625-5.176 3.625m0 0"/></g></g></g><g mask="url(#e2dcd7f10a)"><g clip-path="url(#8978446bcb)" transform="translate(694 433)"><path d="M27.215 63.863c-1.555 0-2.59-.52-3.625-1.554L2.887 41.605c-2.07-2.07-2.07-5.175 0-7.246L23.59 13.652c2.07-2.07 5.18-2.07 7.25 0 2.07 2.075 2.07 5.18 0 7.25L13.758 37.98 30.84 55.063c2.07 2.07 2.07 5.175 0 7.246-1.035 1.035-2.07 1.554-3.625 1.554m51.762 0c-1.555 0-2.59-.52-3.625-1.554-2.07-2.07-2.07-5.176 0-7.246L92.434 37.98 75.352 20.902c-2.07-2.07-2.07-5.175 0-7.25 2.07-2.07 5.175-2.07 7.246 0l20.707 20.707c2.07 2.07 2.07 5.176 0 7.246L82.598 62.31c-1.035 1.035-2.07 1.554-3.621 1.554m0 0"/><g clip-path="url(#74d088ac5d)"><path d="M42.742 74.215c-.515 0-1.035 0-1.55-.52-2.59-1.035-4.141-3.62-3.106-6.726L58.789 4.855c1.035-2.59 3.625-4.14 6.73-3.105 2.586 1.035 4.141 3.621 3.106 6.727L47.918 70.59c-1.035 2.07-3.105 3.625-5.176 3.625m0 0"/></g></g></g><g mask="url(#20adc336ac)"><g clip-path="url(#00a7ff41bc)" transform="translate(608 348)"><g clip-path="url(#f63ec5e2ba)"><path d="M27.648 63.383c-1.554 0-2.59-.52-3.625-1.555L3.32 41.125c-2.07-2.07-2.07-5.176 0-7.246l20.703-20.707c2.07-2.07 5.176-2.07 7.247 0s2.07 5.176 0 7.246L14.188 37.5 31.27 54.582c2.07 2.07 2.07 5.176 0 7.246-1.036 1.035-2.07 1.555-3.622 1.555m0 0"/></g><path d="M79.406 63.383c-1.55 0-2.586-.52-3.62-1.555-2.071-2.07-2.071-5.176 0-7.246L92.866 37.5 75.785 20.418c-2.07-2.07-2.07-5.176 0-7.246s5.176-2.07 7.246 0l20.703 20.707c2.07 2.07 2.07 5.176 0 7.246L83.031 61.828c-1.035 1.035-2.07 1.555-3.625 1.555m0 0"/><g clip-path="url(#3174012734)"><path d="M43.176 73.734c-.52 0-1.035 0-1.555-.52-2.586-1.034-4.14-3.62-3.105-6.726L59.223 4.375c1.035-2.59 3.62-4.14 6.726-3.105 2.59 1.035 4.14 3.62 3.106 6.726L48.352 70.11c-1.036 2.07-3.106 3.625-5.176 3.625m0 0"/></g></g></g><g mask="url(#caa877a005)"><g clip-path="url(#cdb3d48c60)" transform="translate(522 445)"><path d="M27.426 63.863c-1.555 0-2.59-.52-3.625-1.554L3.098 41.605c-2.07-2.07-2.07-5.175 0-7.246L23.8 13.652c2.07-2.07 5.176-2.07 7.246 0 2.07 2.075 2.07 5.18 0 7.25L13.965 37.98l17.082 17.083c2.07 2.07 2.07 5.175 0 7.246-1.035 1.035-2.07 1.554-3.621 1.554m0 0"/><g clip-path="url(#e2b4d69e24)"><path d="M79.188 63.863c-1.555 0-2.59-.52-3.626-1.554-2.07-2.07-2.07-5.176 0-7.246L92.646 37.98 75.563 20.902c-2.07-2.07-2.07-5.175 0-7.25 2.07-2.07 5.175-2.07 7.246 0l20.703 20.707c2.074 2.07 2.074 5.176 0 7.246L82.809 62.31c-1.036 1.035-2.07 1.554-3.621 1.554m0 0"/></g><g clip-path="url(#08e967eee6)"><path d="M42.953 74.215c-.52 0-1.035 0-1.555-.52-2.586-1.035-4.14-3.62-3.105-6.726L59 4.855c1.035-2.59 3.621-4.14 6.727-3.105 2.59 1.035 4.14 3.621 3.105 6.727L48.129 70.59c-1.035 2.07-3.106 3.625-5.176 3.625m0 0"/></g></g></g><g mask="url(#d87e559668)"><g clip-path="url(#ac9f1004fb)" transform="translate(608 519)"><g clip-path="url(#dd1dbc4fde)"><path d="M27.648 63.344c-1.554 0-2.59-.52-3.625-1.555L3.32 41.086c-2.07-2.07-2.07-5.176 0-7.246l20.703-20.703c2.07-2.07 5.176-2.07 7.247 0s2.07 5.176 0 7.246L14.188 37.46 31.27 54.543c2.07 2.07 2.07 5.176 0 7.246-1.036 1.035-2.07 1.555-3.622 1.555m0 0"/></g>
<path d="M79.406 63.344c-1.55 0-2.586-.52-3.62-1.555-2.071-2.07-2.071-5.176 0-7.246l17.081-17.082-17.082-17.078c-2.07-2.07-2.07-5.176 0-7.246s5.176-2.07 7.246 0l20.703 20.703c2.07 2.07 2.07 5.176 0 7.246L83.031 61.789c-1.035 1.035-2.07 1.555-3.625 1.555m0 0"/><g clip-path="url(#495a308926)"><path d="M43.176 73.695c-.52 0-1.035 0-1.555-.52-2.586-1.034-4.14-3.62-3.105-6.726L59.223 4.336c1.035-2.59 3.62-4.14 6.726-3.106 2.59 1.036 4.14 3.622 3.106 6.73L48.352 70.07c-1.036 2.07-3.106 3.625-5.176 3.625m0 0"/></g></g></g><g mask="url(#1369b6ffe7)"><g clip-path="url(#a7aab63b4b)" transform="translate(883 421)"><path d="M27.188 63.863c-1.555 0-2.59-.52-3.625-1.554L2.858 41.605c-2.07-2.07-2.07-5.175 0-7.246l20.704-20.707c2.07-2.07 5.18-2.07 7.25 0 2.07 2.075 2.07 5.18 0 7.25L13.73 37.98l17.083 17.083c2.07 2.07 2.07 5.175 0 7.246-1.036 1.035-2.07 1.554-3.625 1.554m51.762 0c-1.555 0-2.59-.52-3.626-1.554-2.07-2.07-2.07-5.176 0-7.246L92.406 37.98 75.324 20.902c-2.07-2.07-2.07-5.175 0-7.25 2.07-2.07 5.176-2.07 7.25 0l20.703 20.707c2.07 2.07 2.07 5.176 0 7.246L82.574 62.31c-1.039 1.035-2.074 1.554-3.625 1.554m0 0"/><g clip-path="url(#7d1f1b295e)"><path d="M42.715 74.215c-.516 0-1.035 0-1.55-.52-2.59-1.035-4.142-3.62-3.106-6.726L58.762 4.855c1.035-2.59 3.625-4.14 6.73-3.105 2.586 1.035 4.14 3.621 3.106 6.727L47.89 70.59c-1.036 2.07-3.106 3.625-5.176 3.625m0 0"/></g></g></g><g mask="url(#de0e4bb0f7)"><g clip-path="url(#40803c6c79)" transform="translate(799 519)"><path d="M27.188 63.344c-1.555 0-2.59-.52-3.625-1.555L2.858 41.086c-2.07-2.07-2.07-5.176 0-7.246l20.704-20.703c2.07-2.07 5.18-2.07 7.25 0s2.07 5.176 0 7.246L13.73 37.46l17.083 17.082c2.07 2.07 2.07 5.176 0 7.246-1.036 1.035-2.07 1.555-3.625 1.555m51.762.001c-1.555 0-2.59-.52-3.626-1.555-2.07-2.07-2.07-5.176 0-7.246l17.082-17.082-17.082-17.078c-2.07-2.07-2.07-5.176 0-7.246s5.176-2.07 7.25 0l20.703 20.703c2.07 2.07 2.07 5.176 0 7.246L82.574 61.789c-1.039 1.035-2.074 1.555-3.625 1.555m0 0"/><g clip-path="url(#6430e20cf4)"><path d="M42.715 73.695c-.516 0-1.035 0-1.55-.52-2.59-1.034-4.142-3.62-3.106-6.726L58.762 4.336c1.035-2.59 3.625-4.14 6.73-3.106 2.586 1.036 4.14 3.622 3.106 6.73L47.89 70.07c-1.036 2.07-3.106 3.625-5.176 3.625m0 0"/></g></g></g><g mask="url(#4b722274f5)"><g clip-path="url(#8664175e60)" transform="translate(470 567)"><path d="M26.938 64.082c-1.551 0-2.586-.516-3.622-1.55L2.61 41.827c-2.07-2.074-2.07-5.18 0-7.25l20.707-20.703c2.07-2.07 5.176-2.07 7.247 0s2.07 5.176 0 7.246L13.48 38.203l17.083 17.082c2.07 2.07 2.07 5.176 0 7.246-1.036 1.035-2.07 1.551-3.625 1.551m51.762 0c-1.552 0-2.587-.516-3.626-1.55-2.07-2.071-2.07-5.177 0-7.247l17.082-17.082-17.082-17.082c-2.07-2.07-2.07-5.176 0-7.246 2.074-2.07 5.18-2.07 7.25 0l20.703 20.703c2.07 2.07 2.07 5.176 0 7.25L82.324 62.531c-1.035 1.035-2.07 1.551-3.625 1.551m0 0"/><g clip-path="url(#aab32ad8d5)"><path d="M42.465 74.434c-.516 0-1.035 0-1.55-.516-2.59-1.035-4.142-3.625-3.106-6.73l20.703-62.11c1.035-2.59 3.625-4.144 6.73-3.11 2.586 1.036 4.14 3.626 3.106 6.731L47.645 70.813c-1.04 2.07-3.11 3.62-5.18 3.62m0 0"/></g></g></g><g mask="url(#df640a8ce3)"><g clip-path="url(#32d03db546)" transform="translate(556 678)"><path d="M27.16 63.305c-1.555 0-2.59-.52-3.625-1.555L2.832 41.047c-2.07-2.07-2.07-5.176 0-7.246l20.703-20.703c2.07-2.07 5.18-2.07 7.25 0s2.07 5.175 0 7.246L13.703 37.426l17.082 17.078c2.07 2.07 2.07 5.176 0 7.246-1.035 1.035-2.07 1.555-3.625 1.555m51.762 0c-1.555 0-2.59-.52-3.625-1.555-2.07-2.07-2.07-5.176 0-7.246l17.082-17.078-17.082-17.082c-2.07-2.07-2.07-5.176 0-7.246s5.176-2.07 7.25 0L103.25 33.8c2.07 2.07 2.07 5.176 0 7.246L82.547 61.75c-1.04 1.035-2.074 1.555-3.625 1.555m0 0"/><g clip-path="url(#bcba001ed9)"><path d="M42.688 73.656c-.516 0-1.036 0-1.551-.515-2.59-1.036-4.14-3.625-3.106-6.73L58.734 4.296C59.77 1.71 62.36.157 65.464 1.19c2.587 1.036 4.141 3.625 3.106 6.73L47.863 70.036c-1.035 2.07-3.105 3.621-5.175 3.621m0 0"/></g></g></g><g mask="url(#c70100f74a)"><g clip-path="url(#3e3b3db919)" transform="translate(470 766)"><path d="M26.938 63.695c-1.551 0-2.586-.515-3.622-1.55L2.61 41.437c-2.07-2.07-2.07-5.175 0-7.246l20.707-20.703c2.07-2.07 5.176-2.07 7.247 0s2.07 5.176 0 7.246L13.48 37.816l17.083 17.079c2.07 2.07 2.07 5.18 0 7.25-1.036 1.035-2.07 1.55-3.625 1.55m51.762 0c-1.552 0-2.587-.515-3.626-1.55-2.07-2.07-2.07-5.18 0-7.25l17.082-17.079-17.082-17.082c-2.07-2.07-2.07-5.175 0-7.246 2.074-2.07 5.18-2.07 7.25 0l20.703 20.703c2.07 2.07 2.07 5.176 0 7.246L82.324 62.146c-1.035 1.035-2.07 1.55-3.625 1.55m0 0"/><g clip-path="url(#13ed278cf0)"><path d="M42.465 74.047c-.516 0-1.035 0-1.55-.516-2.59-1.035-4.142-3.625-3.106-6.73L58.512 4.688c1.035-2.586 3.625-4.141 6.73-3.106 2.586 1.035 4.14 3.625 3.106 6.73L47.645 70.427c-1.04 2.07-3.11 3.62-5.18 3.62m0 0"/></g></g></g><g mask="url(#5a32b2d47b)"><g clip-path="url(#6aa7a5b603)" transform="translate(556 864)"><path d="M27.16 63.176c-1.555 0-2.59-.516-3.625-1.551L2.832 40.918c-2.07-2.07-2.07-5.176 0-7.246l20.703-20.703c2.07-2.07 5.18-2.07 7.25 0s2.07 5.176 0 7.246L13.703 37.297l17.082 17.082c2.07 2.07 2.07 5.176 0 7.246-1.035 1.035-2.07 1.55-3.625 1.55m51.762.001c-1.555 0-2.59-.516-3.625-1.551-2.07-2.07-2.07-5.176 0-7.246l17.082-17.082-17.082-17.082c-2.07-2.07-2.07-5.176 0-7.246s5.176-2.07 7.25 0l20.703 20.703c2.07 2.07 2.07 5.176 0 7.246L82.547 61.625c-1.04 1.035-2.074 1.55-3.625 1.55m0 0"/><g clip-path="url(#93ffa91253)"><path d="M42.688 73.527c-.516 0-1.036 0-1.551-.515-2.59-1.035-4.14-3.625-3.106-6.73L58.734 4.167c1.036-2.586 3.625-4.14 6.73-3.105 2.587 1.035 4.141 3.625 3.106 6.73L47.863 69.906c-1.035 2.07-3.105 3.621-5.175 3.621m0 0"/></g></g></g><g mask="url(#a8a6be61f7)"><g clip-path="url(#1b3c2b29c7)" transform="translate(522 974)"><path d="M27.426 63.406c-1.555 0-2.59-.515-3.625-1.55L3.098 41.147c-2.07-2.07-2.07-5.175 0-7.246L23.8 13.2c2.07-2.07 5.176-2.07 7.246 0s2.07 5.176 0 7.246L13.965 37.527 31.047 54.61c2.07 2.07 2.07 5.176 0 7.246-1.035 1.036-2.07 1.551-3.621 1.551m0 0"/><g clip-path="url(#30449e500c)"><path d="M79.188 63.406c-1.555 0-2.59-.515-3.626-1.55-2.07-2.07-2.07-5.176 0-7.247l17.083-17.082-17.082-17.082c-2.07-2.07-2.07-5.175 0-7.246 2.07-2.07 5.175-2.07 7.246 0l20.703 20.703c2.074 2.07 2.074 5.176 0 7.246L82.809 61.855c-1.036 1.036-2.07 1.551-3.621 1.551m0 0"/></g><g clip-path="url(#b9fad1f905)"><path d="M42.953 73.758c-.52 0-1.035 0-1.555-.516-2.586-1.035-4.14-3.625-3.105-6.73L59 4.398c1.035-2.585 3.621-4.14 6.727-3.105 2.59 1.035 4.14 3.625 3.105 6.73L48.129 70.137c-1.035 2.07-3.106 3.62-5.176 3.62m0 0"/></g></g></g><g mask="url(#f4b724d664)"><g clip-path="url(#d55819ed45)" transform="translate(170 190)"><g clip-path="url(#f4849c0784)"><path fill="#34ddaf" d="M1114.473 556.766c-.149 111.66-25.47 224.27-85.84 319.242-55.192 86.828-137.242 153.254-232.274 192.117-53.558 21.902-109.89 33.57-167.472 38.215-59.79 4.828-120.102 2.648-178.68-10.914-111.969-25.918-211.781-90.574-285-178.688-75.289-90.61-121.848-203.414-136.805-319.984-7.785-60.676-7.043-122.305 5.993-182.219 12.035-55.316 34.144-108.23 64.984-155.7 61.183-94.175 154.406-164.17 258.101-205.57C470.027 8.333 599.566-.89 717.816 25.25c105.918 23.414 202.446 79.61 271.989 163.262 67.601 81.316 106.906 183.156 119.77 287.586 3.296 26.761 4.862 53.71 4.898 80.668 0-1.364 16.761-2.871 16.757-4.489-.148-110.242-27.132-221.289-86.156-315.105-57.937-92.09-145.316-162.18-247.894-198.527-115.246-40.84-244.22-40.758-362-10.778-56.614 14.41-111.434 33.863-162.711 62.121-50.188 27.657-96.43 62.668-135.703 104.461C55.914 280.484 9.664 393.11 6.656 511.145c-3.12 122.285 32.532 247.175 98.16 350.21 62.88 98.72 155.329 178.27 265.399 219.497 111.781 41.867 237.375 40.964 352.191 11.746 52.778-13.43 103.883-31.43 151.383-58.368 45.379-25.734 86.7-58.496 121.719-97.18 74.035-81.769 116.363-186.91 130.203-295.632 3.766-29.563 5.48-59.348 5.52-89.14 0 1.378-16.754 2.859-16.758 4.488m0 0"/></g></g></g><g mask="url(#c0eb7908c9)"><g clip-path="url(#73d02e9195)" transform="translate(936 555)"><g clip-path="url(#aca37f209c)"><path d="M26.676 64.082c-1.555 0-2.59-.516-3.625-1.55L2.348 41.827c-2.07-2.074-2.07-5.18 0-7.25L23.05 13.875c2.07-2.07 5.176-2.07 7.246 0s2.07 5.176 0 7.246L13.215 38.203l17.082 17.082c2.07 2.07 2.07 5.176 0 7.246-1.035 1.035-2.07 1.551-3.621 1.551m0 0"/></g><path d="M78.434 64.082c-1.551 0-2.586-.516-3.621-1.55-2.07-2.071-2.07-5.177 0-7.247l17.082-17.082-17.082-17.082c-2.07-2.07-2.07-5.176 0-7.246s5.175-2.07 7.246 0l20.703 20.703c2.07 2.07 2.07 5.176 0 7.25L82.059 62.531c-1.036 1.035-2.07 1.551-3.625 1.551m0 0"/><g clip-path="url(#fc090e84a4)"><path d="M42.203 74.434c-.52 0-1.035 0-1.555-.516-2.586-1.035-4.14-3.625-3.105-6.73L58.25 5.078c1.035-2.59 3.621-4.144 6.727-3.11 2.59 1.036 4.14 3.626 3.105 6.731L47.379 70.813c-1.035 2.07-3.106 3.62-5.176 3.62m0 0"/></g></g></g><g mask="url(#0fb3497dbb)"><g clip-path="url(#ca0d0a4dae)" transform="translate(627 1047)"><path d="M27.398 63.887c-1.554 0-2.59-.516-3.625-1.551L3.07 41.633c-2.07-2.07-2.07-5.176 0-7.246L23.773 13.68c2.07-2.07 5.176-2.07 7.247 0s2.07 5.175 0 7.246L13.938 38.008 31.02 55.09c2.07 2.07 2.07 5.176 0 7.246-1.036 1.035-2.07 1.55-3.622 1.55m0 0"/><g clip-path="url(#322c78c46d)"><path d="M79.16 63.887c-1.555 0-2.59-.516-3.625-1.551-2.07-2.07-2.07-5.176 0-7.246l17.082-17.082-17.082-17.082c-2.07-2.07-2.07-5.176 0-7.246s5.176-2.07 7.246 0l20.707 20.707c2.07 2.07 2.07 5.176 0 7.246L82.781 62.336c-1.035 1.035-2.07 1.55-3.62 1.55m0 0"/></g><g clip-path="url(#28fbd55953)"><path d="M42.926 74.242c-.52 0-1.035 0-1.555-.52-2.586-1.034-4.14-3.624-3.105-6.73l20.707-62.11c1.035-2.589 3.62-4.14 6.726-3.105 2.59 1.036 4.14 3.621 3.106 6.727L48.102 70.617c-1.036 2.07-3.106 3.625-5.176 3.625m0 0"/></g></g></g><g mask="url(#1bf778a091)"><g clip-path="url(#5f3387991c)" transform="translate(864 824)"><g clip-path="url(#4f8c1254f3)">
<path d="M26.676 63.547c-1.555 0-2.59-.52-3.625-1.555L2.348 41.29c-2.07-2.07-2.07-5.176 0-7.246L23.05 13.336c2.07-2.07 5.176-2.07 7.246 0s2.07 5.176 0 7.246L13.215 37.664l17.082 17.082c2.07 2.07 2.07 5.176 0 7.246-1.035 1.035-2.07 1.555-3.621 1.555m0 0"/></g><path d="M78.434 63.547c-1.551 0-2.586-.52-3.621-1.555-2.07-2.07-2.07-5.176 0-7.246l17.082-17.082-17.082-17.082c-2.07-2.07-2.07-5.176 0-7.246s5.175-2.07 7.246 0l20.703 20.707c2.07 2.07 2.07 5.176 0 7.246L82.059 61.992c-1.036 1.035-2.07 1.555-3.625 1.555m0 0"/><g clip-path="url(#8f7c170b65)"><path d="M42.203 73.898c-.52 0-1.035 0-1.555-.52-2.586-1.034-4.14-3.62-3.105-6.726L58.25 4.54c1.035-2.59 3.621-4.14 6.727-3.105 2.59 1.035 4.14 3.62 3.105 6.726L47.379 70.273c-1.035 2.07-3.106 3.625-5.176 3.625m0 0"/></g></g></g><g mask="url(#031bc4f10a)"><g clip-path="url(#0e19095355)" transform="translate(767 1047)"><path d="M27.09 63.887c-1.555 0-2.59-.516-3.625-1.551L2.762 41.633c-2.07-2.07-2.07-5.176 0-7.246L23.465 13.68c2.07-2.07 5.176-2.07 7.246 0s2.07 5.175 0 7.246L13.629 38.008 30.71 55.09c2.07 2.07 2.07 5.176 0 7.246-1.035 1.035-2.07 1.55-3.621 1.55m51.763.001c-1.555 0-2.59-.516-3.625-1.551-2.07-2.07-2.07-5.176 0-7.246l17.082-17.082-17.082-17.082c-2.07-2.07-2.07-5.176 0-7.246s5.175-2.07 7.246 0l20.703 20.707c2.07 2.07 2.07 5.176 0 7.246L82.473 62.336c-1.035 1.035-2.07 1.55-3.621 1.55m0 0"/><g clip-path="url(#ded7ca1697)"><path d="M42.617 74.242c-.52 0-1.035 0-1.554-.52-2.586-1.034-4.141-3.624-3.106-6.73l20.707-62.11c1.035-2.589 3.621-4.14 6.727-3.105 2.59 1.036 4.14 3.621 3.105 6.727L47.793 70.617c-1.035 2.07-3.105 3.625-5.176 3.625m0 0"/></g></g></g><g mask="url(#c6a0144e80)"><g clip-path="url(#5b18026d4b)" transform="translate(864 641)"><g clip-path="url(#a28e570269)"><path d="M26.676 63.563c-1.555 0-2.59-.516-3.625-1.551L2.348 41.309c-2.07-2.07-2.07-5.176 0-7.246L23.05 13.355c2.07-2.07 5.176-2.07 7.246 0s2.07 5.176 0 7.247L13.215 37.684l17.082 17.082c2.07 2.07 2.07 5.175 0 7.246-1.035 1.035-2.07 1.55-3.621 1.55m0 0"/></g><path d="M78.434 63.563c-1.551 0-2.586-.516-3.621-1.551-2.07-2.07-2.07-5.176 0-7.246l17.082-17.082-17.082-17.082c-2.07-2.07-2.07-5.176 0-7.247s5.175-2.07 7.246 0l20.703 20.708c2.07 2.07 2.07 5.175 0 7.246L82.059 62.012c-1.036 1.035-2.07 1.55-3.625 1.55m0 0"/><g clip-path="url(#d20acf340c)"><path d="M42.203 73.918c-.52 0-1.035 0-1.555-.52-2.586-1.035-4.14-3.625-3.105-6.73L58.25 4.558c1.035-2.59 3.621-4.14 6.727-3.105 2.59 1.035 4.14 3.621 3.105 6.727L47.379 70.293c-1.035 2.07-3.106 3.625-5.176 3.625m0 0"/></g></g></g></svg>